# AST/ASF file generated using VICON BodyLanguage
# -----------------------------------------------
:version 1.10
:name VICON
:units
  mass 1.0
  length 0.45
  angle deg
:documentation
   .ast/.asf automatically generated from VICON data using
   VICON BodyBuilder and BodyLanguage model FoxedUp or BRILLIANT.MOD
:root
   order TX TY TZ RX RY RZ
   axis XYZ
   position 0 0 0  
   orientation 0 0 0 
:bonedata
  begin
     id 1 
     name lhipjoint
     direction 0.700308 -0.549349 0.455834 
     length 2.59063 
     axis 0 0 0  XYZ
  end
  begin
     id 2 
     name lfemur
     direction 0.34202 -0.939693 0  
     length 6.31066  
     axis 0 0 20  XYZ
    dof rx ry rz
    limits (-160.0 20.0)
           (-70.0 70.0)
           (-60.0 70.0)
  end
  begin
     id 3 
     name ltibia
     direction 0.34202 -0.939693 0   
     length 7.36093   
     axis 0 0 20   XYZ
    dof rx
    limits (-10.0 170.0)
  end
  begin
     id 4 
     name lfoot
     direction 0.0905332 -0.248738 0.96433   
     length 2.0233   
     axis -90 7.62852e-016 20   XYZ
    dof rx rz
    limits (-45.0 90.0)
           (-70.0 20.0)
  end
  begin
     id 5 
     name ltoes
     direction 1.53573e-011 -4.21855e-011 1   
     length 1.01524   
     axis -90 7.62852e-016 20   XYZ
    dof rx
    limits (-90.0 20.0)
  end
  begin
     id 6 
     name rhipjoint
     direction -0.61416 -0.607328 0.503944   
     length 2.34332  
     axis 0 0 0  XYZ 
  end
  begin
     id 7 
     name rfemur
     direction -0.34202 -0.939693 0   
     length 6.58548   
     axis 0 0 -20   XYZ
    dof rx ry rz
    limits (-160.0 20.0)
           (-70.0 70.0)
           (-70.0 60.0)
  end
  begin
     id 8 
     name rtibia
     direction -0.34202 -0.939693 0   
     length 7.20707   
     axis 0 0 -20   XYZ
    dof rx
    limits (-10.0 170.0)
 end
 begin
     id 9 
     name rfoot
     direction -0.136772 -0.375778 0.916561   
     length 1.92184  
     axis -90 -7.62852e-016 -20   XYZ
    dof rx rz
    limits (-45.0 90.0)
           (-20.0 70.0)
  end
  begin
     id 10 
     name rtoes
     direction -1.53535e-011 -4.21828e-011 1   
     length 0.951089   
     axis -90 -7.62852e-016 -20   XYZ
    dof rx
    limits (-90.0 20.0)
  end
  begin
     id 11 
     name lowerback
     direction -0.0444974 0.988086 -0.147332   
     length 1.9609   
     axis 0 0 0   XYZ
    dof rx ry rz
    limits (-20.0 45.0)
           (-30.0 30.0)
           (-30.0 30.0)
  end
  begin
     id 12 
     name upperback
     direction 0.00613146 0.999513 0.0306081   
     length 1.94944   
     axis 0 0 0   XYZ
    dof rx ry rz
    limits (-20.0 45.0)
           (-30.0 30.0)
           (-30.0 30.0)
  end
  begin
     id 13 
     name thorax
     direction 0.0254621 0.994518 0.101418   
     length 2.0119   
     axis 0 0 0   XYZ
    dof rx ry rz
    limits (-20.0 45.0)
           (-30.0 30.0)
           (-30.0 30.0)
  end
  begin
     id 14 
     name lowerneck
     direction 0.0168698 0.977854 0.208608   
     length 1.6375   
     axis 0 0 0   XYZ
    dof rx ry rz
    limits (-20.0 45.0)
           (-30.0 30.0)
           (-30.0 30.0)
  end
  begin
     id 15 
     name upperneck
     direction -0.0283988 0.989338 -0.142843   
     length 1.6851   
     axis 0 0 0   XYZ
    dof rx ry rz
    limits (-20.0 45.0)
           (-30.0 30.0)
           (-30.0 30.0)
  end
  begin
     id 16
     name head
     direction -0.0129422 0.99741 -0.0707489  
     length 1.69029  
     axis 0 0 0   XYZ
    dof rx ry rz
    limits (-20.0 45.0)
           (-30.0 30.0)
           (-30.0 30.0)
  end
  begin
     id 17 
     name lclavicle
     direction 0.820295 0.564628 -0.0911715  
     length 3.16484  
     axis 0 0 0   XYZ
    dof ry rz
    limits (-20.0 10.0)
           (0.0 20.0)
  end
  begin
     id 18 
     name lhumerus
     direction 1 -4.48969e-011 1.00186e-027   
     length 5.17853   
     axis 180 -30 -90   XYZ
    dof rx ry rz
    limits (-60.0 90.0)
           (-90.0 90.0)
           (-90.0 90.0)
  end
  begin
     id 19
     name lradius
     direction 1 -4.48966e-011 -1.52922e-027   
     length 3.40399   
     axis 180 -30 -90   XYZ
    dof rx
    limits (-10.0 170.0)
  end
  begin
     id 20
     name lwrist
     direction 1 -4.48981e-011 -3.80893e-027   
     length 1.70199   
     axis 1.1049e-015 90 90   XYZ
    dof ry
    limits (-180.0 0.0)
 end
  begin
     id 21 
     name lhand
     direction 1 -4.48957e-011 -7.61786e-027   
     length 0.708964   
     axis 4.86085e-015 90 90   XYZ
    dof rx rz
    limits (-90.0 90.0)
           (-45.0 45.0)
  end
  begin
     id 22 
     name lfingers
     direction 1 -4.48929e-011 -1.52357e-026   
     length 0.571585   
     axis 9.7217e-015 90 90   XYZ
    dof rx
    limits (0.0 90.0)
  end
  begin
     id 23
     name lthumb
     direction 0.707107 -6.34905e-011 0.707107   
     length 0.820685   
     axis -90 45 2.85299e-015   XYZ
    dof rx rz
    limits (-45.0 45.0)
           (-45.0 45.0)
  end
  begin
     id 24 
     name rclavicle
     direction -0.858602 0.463947 -0.218075   
     length 3.35137  
     axis 0 0 0   XYZ 
    dof ry rz
    limits (-10.0 20.0)
           (-20.0 0.0)
  end
  begin
     id 25 
     name rhumerus
     direction -1 -4.48969e-011 -1.98511e-027  
     length 5.42351   
     axis 180 30 90   XYZ
    dof rx ry rz
    limits (-90.0 60.0)
           (-90.0 90.0)
           (-90.0 90.0)
  end
  begin
     id 26 
     name rradius
     direction -1 -4.48961e-011 -2.82624e-027   
     length 3.42066   
     axis 180 30 90   XYZ
    dof rx
    limits (-10.0 170.0)
  end
  begin
     id 27 
     name rwrist
     direction -1 -4.48966e-011 -3.80893e-027   
     length 1.71033   
     axis 1.1049e-015 -90 -90   XYZ
    dof ry
    limits (-180.0 0.0)
  end
  begin
     id 28
     name rhand
     direction -1 -4.48964e-011 -7.61786e-027   
     length 0.743608   
     axis 4.86085e-015 -90 -90   XYZ
    dof rx rz
    limits (-90.0 90.0)
           (-45.0 45.0)
  end
  begin
     id 29
     name rfingers
     direction -1 -4.48961e-011 -1.52357e-026   
     length 0.599516   
     axis 9.7217e-015 -90 -90   XYZ
    dof rx
    limits (0.0 90.0)
  end
  begin
     id 30
     name rthumb
     direction -0.707107 -6.34913e-011 0.707107   
     length 0.860789   
     axis -90 -45 -2.85299e-015   XYZ
    dof rx rz
    limits (-45.0 45.0)
           (-45.0 45.0)
  end
:hierarchy
  begin
    root lhipjoint rhipjoint lowerback
    lhipjoint lfemur
    lfemur ltibia
    ltibia lfoot
    lfoot ltoes
    rhipjoint rfemur
    rfemur rtibia
    rtibia rfoot
    rfoot rtoes
    lowerback upperback
    upperback thorax
    thorax lowerneck lclavicle rclavicle
    lowerneck upperneck
    upperneck head
    lclavicle lhumerus
    lhumerus lradius
    lradius lwrist
    lwrist lhand lthumb
    lhand lfingers
    rclavicle rhumerus
    rhumerus rradius
    rradius rwrist
    rwrist rhand rthumb
    rhand rfingers
  end

#!OML:ASF E:\mmandel\Project 1\Capture day 1\Session 2\Subject.ASF
:FULLY-SPECIFIED
:DEGREES
3006
root 10.1129 14.7353 -3.19981 735.237 77.7169 715.058
lowerback 19.7646 2.04933 -4.96377
upperback 2.52928 1.80371 0.524101
thorax -8.48463 1.08793 2.91046
lowerneck -16.5023 1.82019 4.73042
upperneck 6.68471 2.07501 -5.73094
head 4.78444 0.773316 -2.37525
rclavicle 2.6339e-015 -3.37934e-015
rhumerus -14.3487 3.2566 -83.5875
rradius 63.3508
rwrist -21.1785
rhand -13.2589 27.604
rfingers 7.12502
rthumb 12.8436 -1.9808
lclavicle 2.6339e-015 -3.37934e-015
lhumerus -10.0349 -25.5354 78.6218
lradius 60.361
lwrist 32.8248
lhand -19.5191 -30.9622
lfingers 7.12502
lthumb 6.80407 -1.09148
rfemur -56.5409 -0.329414 11.174
rtibia 65.5021
rfoot -29.9987 -5.28405
rtoes -14.7576
lfemur -55.2007 16.6287 -23.5995
ltibia 67.4551
lfoot -29.4588 1.2149
ltoes 1.85119
3007
root 10.1064 14.7256 -3.20617 734.708 77.64 714.52
lowerback 19.8928 2.0836 -4.97448
upperback 2.50176 1.83356 0.473946
thorax -8.58595 1.10401 2.85086
lowerneck -16.5848 1.79399 4.82802
upperneck 6.69293 2.0407 -5.94253
head 4.80226 0.744122 -2.46085
rclavicle 1.82385e-014 -9.83984e-015
rhumerus -14.5167 3.13917 -83.6867
rradius 63.4942
rwrist -21.0649
rhand -13.2768 27.7641
rfingers 7.12502
rthumb 12.8264 -1.82185
lclavicle 1.82385e-014 -9.83984e-015
lhumerus -10.0976 -25.5434 78.6113
lradius 60.3129
lwrist 32.8924
lhand -19.4637 -31.2334
lfingers 7.12502
lthumb 6.85754 -1.3645
rfemur -56.6436 -0.17794 11.2474
rtibia 65.5263
rfoot -29.9371 -5.29594
rtoes -14.6268
lfemur -55.3353 16.6996 -23.4957
ltibia 67.5828
lfoot -29.4515 1.2332
ltoes 1.83133
3008
root 10.105 14.7279 -3.21164 733.98 77.563 713.817
lowerback 19.9354 2.11858 -4.93522
upperback 2.5179 1.88103 0.414845
thorax -8.59225 1.12432 2.75021
lowerneck -16.6753 1.76636 4.88681
upperneck 6.7168 1.9968 -6.01454
head 4.82324 0.718019 -2.4971
rclavicle 4.62174e-014 7.95139e-016
rhumerus -14.6967 3.15501 -83.7555
rradius 63.7184
rwrist -21.262
rhand -13.404 27.4993
rfingers 7.12502
rthumb 12.7038 -2.09429
lclavicle 4.62174e-014 7.95139e-016
lhumerus -10.1929 -25.564 78.5405
lradius 60.4535
lwrist 32.8877
lhand -19.5116 -31.0982
lfingers 7.12502
lthumb 6.81126 -1.22777
rfemur -56.6118 -0.0124682 11.3593
rtibia 65.4792
rfoot -29.9142 -5.28502
rtoes -14.2493
lfemur -55.3208 16.7158 -23.3199
ltibia 67.6334
lfoot -29.4944 1.37209
ltoes 1.46844
3009
root 10.1085 14.7327 -3.21666 733.519 77.4703 713.443
lowerback 19.9006 2.09668 -5.07687
upperback 2.58946 1.82598 0.390373
thorax -8.49291 1.10007 2.82091
lowerneck -16.559 1.81096 4.79071
upperneck 6.59292 2.0612 -5.87175
head 4.76671 0.759062 -2.43029
rclavicle -4.19436e-014 3.77691e-015
rhumerus -14.8829 3.45947 -83.8299
rradius 64.0872
rwrist -21.4874
rhand -13.5949 27.3154
rfingers 7.12502
rthumb 12.5197 -2.28954
lclavicle -4.19436e-014 3.77691e-015
lhumerus -10.2773 -25.4049 78.4275
lradius 60.5251
lwrist 32.7316
lhand -19.6571 -30.7439
lfingers 7.12502
lthumb 6.67085 -0.868951
rfemur -56.4798 0.104299 11.4169
rtibia 65.4144
rfoot -29.9101 -5.33277
rtoes -14.3796
lfemur -55.16 16.7309 -23.2061
ltibia 67.6269
lfoot -29.5584 1.52573
ltoes 1.08129
3010
root 10.1139 14.7349 -3.22526 733.565 77.3736 713.554
lowerback 19.8631 2.06866 -5.24316
upperback 2.6285 1.75443 0.346508
thorax -8.42631 1.06907 2.88854
lowerneck -16.4124 1.76044 4.86851
upperneck 6.42915 2.00332 -6.1044
head 4.69329 0.721128 -2.52105
rclavicle 3.23025e-014 -1.33186e-014
rhumerus -15.0308 3.61575 -83.8602
rradius 64.3606
rwrist -21.4463
rhand -13.4976 27.6225
rfingers 7.12502
rthumb 12.6135 -1.97668
lclavicle 3.23025e-014 -1.33186e-014
lhumerus -10.4145 -25.1727 78.441
lradius 60.5371
lwrist 32.4818
lhand -19.6029 -30.3991
lfingers 7.12502
lthumb 6.72315 -0.52585
rfemur -56.3912 0.109362 11.3771
rtibia 65.3783
rfoot -29.8858 -5.34368
rtoes -14.8304
lfemur -55.0318 16.7625 -23.2472
ltibia 67.6234
lfoot -29.6248 1.51634
ltoes 1.41557
3011
root 10.1182 14.7319 -3.23768 733.748 77.3726 713.693
lowerback 19.8146 2.09261 -5.11619
upperback 2.58361 1.80643 0.279079
thorax -8.44832 1.08909 2.72882
lowerneck -16.2481 1.55524 4.685
upperneck 6.36167 1.78308 -6.20541
head 4.6337 0.604931 -2.54233
rclavicle -1.13307e-014 -3.99557e-014
rhumerus -15.2085 3.30169 -83.7298
rradius 64.4891
rwrist -21.2915
rhand -13.2132 27.8267
rfingers 7.12502
rthumb 12.8877 -1.75533
lclavicle -1.13307e-014 -3.99557e-014
lhumerus -10.504 -25.3303 78.6439
lradius 60.4337
lwrist 32.3126
lhand -19.5578 -30.5724
lfingers 7.12502
lthumb 6.76673 -0.700492
rfemur -56.4325 -0.0121667 11.3281
rtibia 65.3911
rfoot -29.8768 -5.25269
rtoes -14.7586
lfemur -55.0887 16.6674 -23.327
ltibia 67.6766
lfoot -29.6858 1.50745
ltoes 1.87369
3012
root 10.1187 14.7204 -3.24628 733.656 77.3796 713.568
lowerback 19.8346 2.19071 -4.86357
upperback 2.53599 1.97883 0.218392
thorax -8.51663 1.16327 2.47064
lowerneck -16.2872 1.25834 4.10562
upperneck 6.52601 1.47135 -5.82488
head 4.66554 0.459173 -2.35653
rclavicle 1.00386e-014 3.18055e-015
rhumerus -15.4781 2.82499 -83.5447
rradius 64.7067
rwrist -21.2462
rhand -13.0802 27.5592
rfingers 7.12502
rthumb 13.0159 -2.01475
lclavicle 1.00386e-014 3.18055e-015
lhumerus -10.4237 -25.9152 78.8471
lradius 60.197
lwrist 32.2869
lhand -19.6984 -30.9287
lfingers 7.12502
lthumb 6.63093 -1.05256
rfemur -56.5183 -0.0593169 11.3414
rtibia 65.4351
rfoot -29.843 -5.27245
rtoes -14.7578
lfemur -55.202 16.6016 -23.3264
ltibia 67.7924
lfoot -29.7256 1.61599
ltoes 1.4913
3013
root 10.1197 14.7151 -3.25113 733.252 77.3278 713.194
lowerback 19.8409 2.23504 -4.77455
upperback 2.54824 2.05105 0.162199
thorax -8.50737 1.19351 2.33903
lowerneck -16.4837 1.05041 3.74149
upperneck 6.77182 1.22765 -5.41947
head 4.75495 0.351189 -2.19271
rclavicle -2.22639e-014 1.07344e-014
rhumerus -15.6677 2.75078 -83.4998
rradius 64.9159
rwrist -21.3375
rhand -13.0815 27.5419
rfingers 7.12502
rthumb 13.0147 -2.03209
lclavicle -2.22639e-014 1.07344e-014
lhumerus -10.356 -26.2324 78.843
lradius 60.0203
lwrist 32.2191
lhand -19.8488 -31.0202
lfingers 7.12502
lthumb 6.48575 -1.13946
rfemur -56.5158 0.00956531 11.4178
rtibia 65.4322
rfoot -29.7932 -5.40715
rtoes -15.0749
lfemur -55.2171 16.6425 -23.2468
ltibia 67.8862
lfoot -29.7659 1.75093
ltoes 0.891605
3014
root 10.122 14.7194 -3.25624 732.611 77.2789 712.558
lowerback 19.803 2.20469 -4.76743
upperback 2.57299 2.01296 0.124714
thorax -8.45483 1.17347 2.30587
lowerneck -16.5524 1.01886 3.64038
upperneck 6.86611 1.18888 -5.25221
head 4.79134 0.33862 -2.12766
rclavicle -5.28767e-014 -6.95746e-015
rhumerus -15.6927 2.83758 -83.5653
rradius 64.9757
rwrist -21.3314
rhand -13.0947 27.9391
rfingers 7.12502
rthumb 13.0019 -1.63571
lclavicle -5.28767e-014 -6.95746e-015
lhumerus -10.3777 -26.164 78.7237
lradius 59.9702
lwrist 32.1709
lhand -19.8754 -31.1057
lfingers 7.12502
lthumb 6.46008 -1.22423
rfemur -56.461 0.10349 11.5435
rtibia 65.3739
rfoot -29.7878 -5.45497
rtoes -15.0403
lfemur -55.1928 16.673 -23.0995
ltibia 67.9199
lfoot -29.8149 1.80715
ltoes 0.939658
3015
root 10.1234 14.7239 -3.26109 732.045 77.2228 711.96
lowerback 19.7998 2.18174 -4.77148
upperback 2.57042 1.98032 0.105168
thorax -8.45278 1.15766 2.29581
lowerneck -16.5559 1.05308 3.69792
upperneck 6.73594 1.24074 -5.44153
head 4.7559 0.354565 -2.19138
rclavicle -1.11319e-014 1.35174e-014
rhumerus -15.7057 2.86291 -83.6373
rradius 65.1154
rwrist -21.2568
rhand -13.0306 27.9779
rfingers 7.12502
rthumb 13.0637 -1.59297
lclavicle -1.11319e-014 1.35174e-014
lhumerus -10.3696 -26.0278 78.641
lradius 59.8874
lwrist 32.2512
lhand -19.7336 -30.8893
lfingers 7.12502
lthumb 6.59702 -1.01208
rfemur -56.4411 0.190556 11.6574
rtibia 65.3086
rfoot -29.7919 -5.43497
rtoes -15.0498
lfemur -55.2014 16.6687 -22.9606
ltibia 67.9251
lfoot -29.8378 1.83011
ltoes 1.20515
3016
root 10.123 14.7253 -3.26408 732.094 77.1091 712.009
lowerback 19.8287 2.18905 -4.95403
upperback 2.54825 1.94413 0.0598105
thorax -8.49416 1.14652 2.35904
lowerneck -16.4487 1.10053 3.83631
upperneck 6.51996 1.29533 -5.65792
head 4.67714 0.37462 -2.27589
rclavicle 5.56597e-015 1.15295e-014
rhumerus -15.7782 2.99477 -83.7252
rradius 65.3668
rwrist -21.3257
rhand -12.8354 27.6307
rfingers 7.12502
rthumb 13.2519 -1.92808
lclavicle 5.56597e-015 1.15295e-014
lhumerus -10.4312 -25.8662 78.6075
lradius 59.7813
lwrist 32.2628
lhand -19.5888 -30.634
lfingers 7.12502
lthumb 6.73677 -0.761199
rfemur -56.4533 0.269319 11.6273
rtibia 65.2854
rfoot -29.7849 -5.40678
rtoes -15.1772
lfemur -55.1967 16.7049 -22.9815
ltibia 67.924
lfoot -29.8152 1.84411
ltoes 1.48261
